<?xml version="1.0" encoding="UTF-8"?>
<!DOCTYPE svg PUBLIC "-//W3C//DTD SVG 1.1//EN" "http://www.w3.org/Graphics/SVG/1.1/DTD/svg11.dtd">
<!-- Creator: CorelDRAW X7 -->
<svg xmlns="http://www.w3.org/2000/svg" xml:space="preserve" width="50mm" height="100mm" version="1.1" style="shape-rendering:geometricPrecision; text-rendering:geometricPrecision; image-rendering:optimizeQuality; fill-rule:evenodd; clip-rule:evenodd"
viewBox="0 0 5000 10000"
 xmlns:xlink="http://www.w3.org/1999/xlink">
 <defs>
  <style type="text/css">
   <![CDATA[
    .str0 {stroke:#FEFEFE;stroke-width:17.63;stroke-linejoin:round}
    .fil0 {fill:black}
   ]]>
  </style>
 </defs>
 <g id="Camada_x0020_1">
  <metadata id="CorelCorpID_0Corel-Layer"/>
  <g id="_3213629772784">
   <path class="fil0 str0" d="M1141 4961l-47 0c-20,199 -47,441 -391,441l-156 0c-90,0 -94,-11 -94,-78l0 -1035c0,-66 0,-94 184,-94l62 0 0 -58c-74,4 -246,4 -328,4 -74,0 -226,0 -293,-4l0 58 43 0c149,0 152,20 152,90l0 1020c0,70 -3,90 -152,90l-43 0 0 58 1008 0 55 -492z"/>
   <path class="fil0 str0" d="M1105 4133c-7,-24 -11,-31 -35,-31 -23,0 -31,7 -39,31l-312 793c-12,31 -35,94 -156,94l0 46 300 0 0 -46c-58,0 -97,-28 -97,-67 0,-8 0,-12 4,-27l66 -168 387 0 78 199c4,8 8,16 8,23 0,40 -75,40 -110,40l0 46 383 0 0 -46 -27 0c-90,0 -102,-12 -114,-51l-336 -836zm-74 140l172 442 -348 0 176 -442 0 0z"/>
   <path class="fil0 str0" d="M2664 4148l-1184 0 -35 434 47 0c28,-312 55,-379 352,-379 35,0 86,0 105,4 39,8 39,27 39,74l0 1020c0,66 0,94 -203,94l-78 0 0 58c78,-4 277,-4 367,-4 90,0 289,0 371,4l0 -58 -78 0c-203,0 -203,-28 -203,-94l0 -1016c0,-39 0,-66 35,-74 20,-4 74,-4 110,-4 293,0 320,63 347,379l47 0 -39 -438 0 0z"/>
   <path class="fil0 str0" d="M3707 5398l-47 0c-47,297 -94,442 -426,442l-257 0c-90,0 -94,-12 -94,-78l0 -520 172 0c187,0 211,63 211,227l47 0 0 -512 -47 0c0,164 -20,227 -211,227l-172 0 0 -469c0,-63 4,-78 94,-78l250 0c296,0 347,105 378,379l47 0 -54 -438 -1090 0 0 59 43 0c148,0 152,19 152,90l0 1015c0,70 -4,90 -152,90l-43 0 0 66 1117 0 82 -500z"/>
   <path class="fil0 str0" d="M4293 4711l266 -391c39,-62 105,-125 281,-125l0 -58 -465 0 0 58c78,0 121,43 121,90 0,20 -4,24 -16,43l-222 328 -250 -375c-4,-4 -12,-19 -12,-27 0,-24 43,-55 125,-59l0 -58c-66,4 -207,4 -281,4 -59,0 -180,0 -254,-4l0 58 35 0c106,0 145,12 180,67l355 539 -316 469c-27,39 -86,128 -281,128l0 59 464 0 0 -59c-89,0 -121,-54 -121,-89 0,-16 4,-24 20,-47l273 -407 309 465c4,8 8,16 8,20 0,23 -43,55 -125,58l0 59c66,-4 211,-4 281,-4 82,0 172,0 254,4l0 -59 -35 0c-102,0 -141,-7 -184,-70l-410 -617z"/>
  </g>
 </g>
</svg>
