<?xml version="1.0" encoding="UTF-8"?>
<!DOCTYPE svg PUBLIC "-//W3C//DTD SVG 1.1//EN" "http://www.w3.org/Graphics/SVG/1.1/DTD/svg11.dtd">
<!-- Creator: CorelDRAW X7 -->
<svg xmlns="http://www.w3.org/2000/svg" xml:space="preserve" width="48.438mm" height="17.969mm" version="1.1" style="shape-rendering:geometricPrecision; text-rendering:geometricPrecision; image-rendering:optimizeQuality; fill-rule:evenodd; clip-rule:evenodd"
viewBox="0 0 4844 1797"
 xmlns:xlink="http://www.w3.org/1999/xlink">
 <defs>
  <style type="text/css">
   <![CDATA[
    .str0 {stroke:#FEFEFE;stroke-width:17.63;stroke-linejoin:round}
    .fil0 {fill:black}
   ]]>
  </style>
 </defs>
 <g id="Camada_x0020_1">
  <metadata id="CorelCorpID_0Corel-Layer"/>
  <g id="_3213540630912">
   <path class="fil0 str0" d="M1063 859l-47 0c-20,200 -47,442 -391,442l-156 0c-90,0 -94,-12 -94,-78l0 -1035c0,-67 0,-94 184,-94l62 0 0 -59c-74,4 -246,4 -328,4 -74,0 -227,0 -293,-4l0 59 43 0c148,0 152,19 152,90l0 1019c0,70 -4,90 -152,90l-43 0 0 59 1008 0 55 -493z"/>
   <path class="fil0 str0" d="M1027 31c-7,-23 -11,-31 -35,-31 -23,0 -31,8 -39,31l-312 793c-12,31 -36,94 -157,94l0 47 301 0 0 -47c-58,0 -97,-27 -97,-66 0,-8 0,-12 3,-28l67 -168 387 0 78 199c4,8 8,16 8,24 0,39 -75,39 -110,39l0 47 383 0 0 -47 -27 0c-90,0 -102,-12 -114,-51l-336 -836zm-74 141l172 441 -348 0 176 -441 0 0z"/>
   <path class="fil0 str0" d="M2586 47l-1184 0 -35 433 47 0c27,-312 55,-378 352,-378 35,0 86,0 105,3 39,8 39,28 39,75l0 1019c0,67 0,94 -203,94l-78 0 0 59c78,-4 277,-4 367,-4 90,0 289,0 371,4l0 -59 -78 0c-203,0 -203,-27 -203,-94l0 -1015c0,-39 0,-67 35,-75 20,-4 74,-4 110,-4 292,0 320,63 347,379l47 0 -39 -437 0 0z"/>
   <path class="fil0 str0" d="M3629 1297l-47 0c-47,297 -94,441 -426,441l-258 0c-89,0 -93,-11 -93,-78l0 -519 172 0c187,0 211,62 211,226l46 0 0 -512 -46 0c0,165 -20,227 -211,227l-172 0 0 -469c0,-62 4,-78 93,-78l250 0c297,0 348,106 379,379l47 0 -54 -437 -1090 0 0 58 43 0c148,0 152,20 152,90l0 1016c0,70 -4,89 -152,89l-43 0 0 67 1117 0 82 -500z"/>
   <path class="fil0 str0" d="M4215 609l266 -390c39,-63 105,-125 281,-125l0 -59 -465 0 0 59c78,0 121,43 121,90 0,19 -4,23 -16,43l-222 328 -250 -375c-4,-4 -12,-20 -12,-28 0,-23 43,-54 125,-58l0 -59c-66,4 -207,4 -281,4 -59,0 -180,0 -254,-4l0 59 35 0c105,0 145,11 180,66l355 539 -316 469c-28,39 -86,129 -282,129l0 58 465 0 0 -58c-89,0 -121,-55 -121,-90 0,-16 4,-23 20,-47l273 -406 309 465c4,8 8,15 8,19 0,24 -43,55 -125,59l0 58c66,-3 211,-3 281,-3 82,0 172,0 254,3l0 -58 -35 0c-102,0 -141,-8 -184,-70l-410 -618z"/>
  </g>
 </g>
</svg>
